<svg xmlns="http://www.w3.org/2000/svg" xmlns:xlink="http://www.w3.org/1999/xlink" viewBox="0 0 66.067 57.067" fill="#fff" fill-rule="evenodd" stroke="#000" stroke-linecap="round" stroke-linejoin="round"><use xlink:href="#A" x=".533" y=".533"/><symbol id="A" overflow="visible"><g stroke="none"><use xlink:href="#C" fill="#5277c3"/><path d="M25.152 17.328L9.562 44.33 5.92 38.159l4.203-7.232-8.345-.021L0 27.822l1.817-3.153 11.877.037 4.269-7.36zm1.195 21.585h31.179l-3.522 6.24-8.363-.023 4.154 7.237-1.781 3.093-3.639.004-5.906-10.304-8.508-.017zm18.148-11.831L28.907.079 36.07.012l4.162 7.253L44.425.049l3.559.002 1.813 3.15-5.971 10.268 4.239 7.377z" fill="#7ebae4"/><g fill="#5277c3"><use xlink:href="#C"/><path d="M37.632 16.552l-31.179-.002 3.523-6.238 8.363.023-4.152-7.237L15.968.004 19.607 0l5.906 10.304 8.508.017zm1.216 21.647l15.59-27 3.641 6.171-4.203 7.232 8.345.021L64 27.715l-1.817 3.153-11.877-.037-4.269 7.36z"/></g></g></symbol><defs ><path id="C" d="M19.525 28.451l15.589 27.002-7.164.067-4.162-7.253-4.192 7.216-3.559-.002-1.813-3.15 5.971-10.268-4.239-7.377z"/></defs></svg>